<svg xmlns="http://www.w3.org/2000/svg" width="238" height="238" viewBox="0 0 238 238" role="img" aria-labelledby="t">
<title id="t">Wedgetail Technology mark</title>
<path d="M226.118 67.1343C216.522 47.3209 201.623 30.5594 183.034 18.6789C163.913 6.47104 141.778 0 119.001 0C98.5269 0 78.3292 5.30113 60.5976 15.2996C43.4145 24.9863 28.7727 38.9324 18.2624 55.6386C6.3057 74.5939 0 96.5084 0 119.009C0 159.257 20.1269 196.489 53.834 218.587C73.2112 231.29 95.749 237.998 119.001 237.998C127.191 237.998 135.361 237.157 143.313 235.512C152.233 233.648 160.971 230.759 169.252 226.902C175.485 223.979 181.499 220.504 187.13 216.574C218.972 194.313 238.002 157.828 238.002 119.007C238.002 100.821 234.017 83.3827 226.121 67.1343H226.118ZM140.115 220.142C133.296 221.568 126.24 222.318 119.001 222.318C98.1266 222.318 78.6941 216.121 62.4444 205.466C44.3102 193.273 29.925 175.49 22.4493 154.396C21.3699 151.362 18.738 143.63 18.7026 140.724C18.665 135.899 22.1949 126.34 24.1501 121.733C36.8168 91.8132 64.6937 65.8759 98.1465 62.97L90.5049 57.158C116.243 56.1517 141.212 64.2305 163.769 75.8744L166.967 86.731C178.466 89.783 193.783 93.6046 197.056 106.909C198.903 114.422 196.709 121.293 193.473 128.039C192.942 128.441 191.883 126.559 191.518 126.192C178.154 113.652 145.6 113.142 128.708 116.888C108.564 121.349 93.044 133.851 86.2274 153.554C86.537 154.047 86.9042 153.463 87.1408 153.262C87.999 152.53 88.7488 151.543 89.5892 150.793C97.6688 143.646 107.12 137.378 117.703 134.764C111.03 143.447 107.339 153.518 110.081 164.538C115.254 185.265 144.702 196.232 140.115 220.139V220.142ZM178.135 203.727C173.253 207.146 168.062 210.143 162.615 212.684C162.469 202.266 156.636 192.707 150.258 184.865C140.497 172.929 123.588 162.145 129.162 144.232C132.836 132.407 145.814 125.845 157.567 125.276C164.459 124.947 180.983 127.561 185.827 132.789C189.226 136.427 188.112 143.701 187.82 148.215C202.132 136.81 213.576 114.511 203.722 96.8711C197.91 86.4701 185.241 82.5047 174.529 79.3068L171.457 68.6316C137.805 50.7555 95.1938 37.0106 57.959 51.963L66.3304 55.82L68.7988 57.4654C47.7783 67.5368 31.2344 84.8269 17.4706 103.289C18.8972 91.2625 23.0089 79.4904 28.7307 68.8704C29.6087 67.2073 30.5576 65.5796 31.5263 64.0094C49.8064 34.9848 82.1423 15.6999 118.994 15.6999C159.905 15.6999 195.276 39.4787 212.001 73.988L211.89 74.1162C233.899 119.648 218.032 174.919 178.128 203.725L178.135 203.727Z" fill="#fff"/>
</svg>
